<svg width="35" height="29" viewBox="0 0 35 29" fill="none" xmlns="http://www.w3.org/2000/svg">
<path d="M31.5298 20.1819H30.135C30.1718 19.9877 30.255 19.7538 30.4248 19.4957C30.9474 18.7016 31.0592 18.0003 31.1577 17.3815C31.2199 16.9916 31.2786 16.6233 31.4383 16.1984C31.5798 15.8219 31.8519 15.5162 32.1306 15.2832L33.0948 17.6137L35 16.8559L31.5525 8.4976L30.7149 8.66377C30.6193 8.68272 28.3571 9.15792 26.9425 11.7262C25.91 13.6008 23.5854 15.0563 20.7574 15.6396L20.1937 13.612L19.1885 13.9005C17.5283 14.3769 16.5631 14.806 15.0777 15.6667C15.0697 15.6769 15.0614 15.6876 15.0534 15.6978L11.1484 20.8392H7.94322C7.94322 20.8392 6.14738 18.439 5.12129 17.0999C4.54931 17.3137 4.04655 17.6244 3.60849 18.0345C2.50023 19.072 2.04908 20.7886 2.40545 22.359L0 23.9274L2.84414 28.9706H4.22378L5.28975 27.7944C6.36559 26.6074 7.91143 25.9267 9.53094 25.9267C10.8971 25.9267 12.2199 26.4122 13.2559 27.2939C14.4349 28.2973 15.5813 28.8482 16.6594 28.9656C17.8974 29.1005 18.6438 28.8035 19.6432 28.4893C20.4005 28.2512 20.9792 28.0067 21.9719 28.1329C22.3913 28.1862 22.7731 28.2116 23.1229 28.2116C25.0847 28.2116 26.0251 27.4094 26.766 26.2174C27.0219 25.8057 27.3794 25.5689 27.7198 25.4638C28.6114 25.1883 29.4306 26.2134 29.4306 26.2134L31.3731 25.2773C31.7187 26.2099 31.8943 27.1853 31.8943 28.181H33.9503C33.9503 26.8358 33.6919 25.5203 33.1825 24.2712L31.5298 20.1819Z" fill="white"/>
<path d="M8.98514 18.8233H10.1067L13.4195 14.4743C14.8178 12.6805 16.733 10.2239 16.733 7.04566C16.733 3.16013 13.5089 -0.000976562 9.54595 -0.000976562C5.583 -0.000976562 2.35885 3.16013 2.35885 7.04566C2.35885 10.2239 4.27395 12.6805 5.67237 14.4743L8.98514 18.8233ZM6.12373 7.04566C6.12373 5.19552 7.65895 3.69029 9.54595 3.69029C11.4329 3.69029 12.9682 5.19552 12.9682 7.04566C12.9682 8.89579 11.4329 10.401 9.54595 10.401C7.65895 10.401 6.12373 8.89586 6.12373 7.04566Z" fill="white"/>
<path d="M10.8125 7.56064C11.1015 6.87706 10.7706 6.09322 10.0734 5.80988C9.3762 5.52653 8.57675 5.85099 8.28776 6.53456C7.99877 7.21813 8.32969 8.00198 9.02688 8.28532C9.72407 8.56866 10.5235 8.24421 10.8125 7.56064Z" fill="white"/>
</svg>
