<svg width="28" height="28" viewBox="0 0 28 28" fill="none" xmlns="http://www.w3.org/2000/svg">
<path d="M25.7532 18.3778C24.039 18.3778 22.3558 18.1097 20.7607 17.5826C19.9791 17.316 19.0183 17.5606 18.5413 18.0505L15.393 20.4271C11.7418 18.4781 9.49278 16.2298 7.57041 12.6061L9.87712 9.5398C10.4764 8.9413 10.6914 8.06703 10.4338 7.24672C9.90446 5.64328 9.63555 3.96088 9.63555 2.24588C9.63562 1.00695 8.6277 -0.000976562 7.38885 -0.000976562H2.24678C1.00792 -0.000976562 0 1.00695 0 2.2458C0 16.4463 11.5527 27.999 25.7532 27.999C26.9921 27.999 28 26.9911 28 25.7522V20.6245C27.9999 19.3857 26.992 18.3778 25.7532 18.3778Z" fill="white"/>
</svg>
