<svg width="77" height="51" viewBox="0 0 77 51" fill="none" xmlns="http://www.w3.org/2000/svg">
<mask id="path-1-outside-1" maskUnits="userSpaceOnUse" x="-7.28801" y="-20.3402" width="88.3911" height="88.3911" fill="black">
<rect fill="white" x="-7.28801" y="-20.3402" width="88.3911" height="88.3911"/>
<path d="M57.2692 8.39176C56.4026 8.3318 55.5431 8.72874 55.1588 9.50773C54.7744 10.2867 54.9823 11.2103 55.5572 11.8616L55.6982 12.0214C56.1298 12.5103 56.2958 13.175 56.2519 13.8257C56.208 14.4767 55.9562 15.1037 55.4642 15.5322L55.3082 15.6681C54.6526 16.2391 54.3347 17.1256 54.6139 17.9488C54.8932 18.7721 55.6849 19.2823 56.5526 19.3366L56.759 19.3495C57.4103 19.3903 57.9915 19.7348 58.4225 20.2247C58.8533 20.7144 59.1259 21.3429 59.0809 21.9935L59.0662 22.2062C59.0062 23.0728 59.4032 23.9323 60.1822 24.3167C60.9612 24.701 61.8848 24.4931 62.536 23.9183L62.6959 23.7772C63.1848 23.3456 63.8495 23.1797 64.5002 23.2236C65.1511 23.2675 65.7782 23.5192 66.2067 24.0112L66.3425 24.1672C66.9135 24.8228 67.8001 25.1408 68.6235 24.8615C69.4467 24.5822 69.9568 23.7905 70.0111 22.9229L70.024 22.7164C70.0648 22.0651 70.4093 21.4839 70.8992 21.0529C71.3889 20.6222 72.0173 20.3495 72.6679 20.3945L72.8807 20.4092C73.7473 20.4692 74.6067 20.0723 74.9911 19.2933C75.3755 18.5143 75.1676 17.5907 74.5927 16.9394L74.4516 16.7795C74.02 16.2906 73.8541 15.626 73.898 14.9753C73.942 14.3243 74.1937 13.6973 74.6857 13.2687L74.8417 13.1329C75.4973 12.5619 75.8152 11.6753 75.5359 10.852C75.2567 10.0288 74.4649 9.51866 73.5973 9.46437L73.3909 9.45145C72.7396 9.4107 72.1583 9.06618 71.7274 8.57626C71.2966 8.08659 71.0239 7.45813 71.069 6.80751L71.0837 6.59477C71.1436 5.72819 70.7467 4.8687 69.9677 4.48434C69.1887 4.09997 68.2651 4.30789 67.6139 4.88271L67.454 5.0238C66.9651 5.45539 66.3004 5.62135 65.6496 5.57743C64.9987 5.5335 64.3717 5.28179 63.9432 4.7898L63.8074 4.6338C63.2364 3.97822 62.3499 3.66023 61.5266 3.93946C60.7032 4.21871 60.1931 5.01046 60.1388 5.87814L60.1259 6.08466C60.0851 6.73587 59.7406 7.31715 59.2507 7.74811C58.761 8.17885 58.1326 8.4515 57.482 8.40649L57.2692 8.39176ZM67.0321 10.434C69.2227 11.5149 70.1223 14.167 69.0414 16.3576C67.9605 18.5482 65.3085 19.4479 63.1178 18.367C60.9272 17.2861 60.0276 14.634 61.1085 12.4434C62.1894 10.2527 64.8414 9.35314 67.0321 10.434Z"/>
<path d="M31.2009 10.0187C30.2064 9.54329 29.0343 9.87049 28.3346 10.7223C27.674 11.5265 26.5825 11.8322 25.5618 11.6292C24.5456 11.4272 23.68 10.7323 23.3795 9.74087C23.0612 8.69092 22.1084 7.94439 21.0129 8.00449C20.8373 8.01412 20.662 8.02596 20.4869 8.03999C19.4007 8.12705 18.5602 8.98628 18.3832 10.0615C18.2159 11.0779 17.447 11.8774 16.4711 12.2068C16.4547 12.2123 16.4383 12.2179 16.422 12.2234C15.4469 12.5557 14.3503 12.389 13.599 11.6841C12.8044 10.9386 11.6147 10.7679 10.6998 11.3597C10.5522 11.4551 10.4057 11.5525 10.2604 11.6517C9.3544 12.2705 9.05241 13.4427 9.43859 14.4696C9.80327 15.4394 9.53891 16.5175 8.85542 17.2961C8.16882 18.0783 7.1165 18.4998 6.10294 18.2635C5.02944 18.0132 3.90011 18.4667 3.40007 19.4491C3.36241 19.5231 3.32515 19.5974 3.2883 19.6721C3.25147 19.7467 3.21516 19.8215 3.17937 19.8964C2.70399 20.8909 3.0312 22.063 3.88296 22.7627C4.68717 23.4233 4.99294 24.5148 4.78994 25.5356C4.58785 26.5517 3.89302 27.4173 2.90155 27.7179C1.85159 28.0362 1.10507 28.9889 1.16517 30.0844C1.1748 30.26 1.18664 30.4353 1.20067 30.6104C1.28772 31.6966 2.14696 32.5371 3.22221 32.7142C4.23857 32.8815 5.03805 33.6503 5.36749 34.6263C5.37303 34.6427 5.3786 34.6591 5.38419 34.6755C5.71649 35.6505 5.54973 36.7471 4.84491 37.4983C4.0993 38.293 3.92871 39.4828 4.52049 40.3978C4.61589 40.5453 4.71321 40.6917 4.81243 40.8369C5.43126 41.7429 6.60339 42.0449 7.63032 41.6587C8.60005 41.2941 9.67821 41.5584 10.4568 42.2419C11.2389 42.9285 11.6605 43.9809 11.4242 44.9944C11.1739 46.0679 11.6274 47.1972 12.6097 47.6973C12.6837 47.7349 12.7581 47.7722 12.8327 47.8091C12.9074 47.8459 12.9822 47.8822 13.0571 47.918C14.0516 48.3934 15.2238 48.0662 15.9234 47.2144C16.584 46.4102 17.6755 46.1044 18.6963 46.3074C19.7124 46.5095 20.578 47.2043 20.8786 48.1958C21.1969 49.2458 22.1497 49.9923 23.2452 49.9322C23.4208 49.9226 23.5961 49.9107 23.7712 49.8967C24.8574 49.8096 25.6978 48.9504 25.8749 47.8752C26.0422 46.8588 26.811 46.0593 27.787 45.7299C27.8034 45.7243 27.8198 45.7187 27.8362 45.7132C28.8112 45.3809 29.9078 45.5476 30.659 46.2524C31.4537 46.9981 32.6434 47.1686 33.5585 46.5769C33.706 46.4814 33.8524 46.3841 33.9977 46.2849C34.9037 45.6661 35.2057 44.4939 34.8195 43.467C34.4548 42.4972 34.7191 41.4191 35.4026 40.6406C36.0892 39.8584 37.1415 39.4369 38.1551 39.6732C39.2286 39.9235 40.3579 39.47 40.858 38.4876C40.8956 38.4136 40.9329 38.3393 40.9697 38.2646C41.0066 38.1899 41.0429 38.1152 41.0787 38.0403C41.5541 37.0458 41.2269 35.8736 40.3751 35.1739C39.5709 34.5133 39.2651 33.4218 39.4681 32.4011C39.6702 31.385 40.365 30.5193 41.3565 30.2188C42.4065 29.9005 43.153 28.9477 43.0929 27.8522C43.0833 27.6766 43.0714 27.5012 43.0574 27.3261C42.9703 26.2399 42.1111 25.3995 41.0359 25.2225C40.0195 25.0552 39.22 24.2863 38.8905 23.3104C38.885 23.294 38.8794 23.2776 38.8739 23.2612C38.5415 22.2862 38.7083 21.1896 39.4131 20.4384C40.1587 19.6437 40.3293 18.4539 39.7376 17.5389C39.6422 17.3914 39.5449 17.2449 39.4456 17.0997C38.8268 16.1937 37.6547 15.8917 36.6278 16.2779C35.658 16.6426 34.5798 16.3782 33.8012 15.6947C33.0191 15.0081 32.5976 13.9558 32.8339 12.9423C33.0842 11.8688 32.6306 10.7394 31.6483 10.2394C31.5743 10.2017 31.5 10.1645 31.4253 10.1276C31.3506 10.0908 31.2758 10.0545 31.2009 10.0187ZM33.0368 34.3504C30.0644 40.3746 22.7712 42.8485 16.747 39.8761C10.7228 36.9037 8.24881 29.6105 11.2212 23.5863C14.1937 17.5621 21.4869 15.0881 27.5111 18.0606C33.5353 21.033 36.0092 28.3262 33.0368 34.3504Z"/>
<path d="M53.3826 2.60874C53.3034 2.00319 53.7302 1.44816 54.3357 1.36905L55.4333 1.22565C56.0388 1.14654 56.5939 1.5733 56.673 2.17884C56.7521 2.78439 56.3253 3.33941 55.7198 3.41853L54.6223 3.56192C54.0167 3.64104 53.4617 3.21428 53.3826 2.60874Z"/>
<path d="M47.9001 3.33139C47.821 2.72584 48.2478 2.17082 48.8533 2.0917L49.9498 1.94845C50.5553 1.86934 51.1103 2.29609 51.1895 2.90164C51.2686 3.50718 50.8418 4.06221 50.2363 4.14133L49.1398 4.28458C48.5343 4.36369 47.9793 3.93694 47.9001 3.33139Z"/>
<path d="M42.4188 4.04821C42.3397 3.44266 42.7665 2.88764 43.372 2.80852L44.4684 2.66527C45.074 2.58616 45.629 3.01291 45.7081 3.61846C45.7873 4.224 45.3605 4.77903 44.755 4.85815L43.6585 5.0014C43.053 5.08051 42.4979 4.65375 42.4188 4.04821Z"/>
<path d="M31.455 5.4809C31.3758 4.87536 31.8026 4.32033 32.4081 4.24121L33.5046 4.09796C34.1101 4.01885 34.6651 4.4456 34.7443 5.05115C34.8234 5.65669 34.3966 6.21172 33.7911 6.29084L32.6946 6.43409C32.0891 6.5132 31.5341 6.08645 31.455 5.4809Z"/>
<path d="M25.973 6.19762C25.8939 5.59207 26.3206 5.03704 26.9262 4.95793L28.0226 4.81468C28.6282 4.73556 29.1832 5.16232 29.2623 5.76787C29.3414 6.37341 28.9147 6.92844 28.3091 7.00755L27.2127 7.15081C26.6071 7.22992 26.0521 6.80316 25.973 6.19762Z"/>
<path d="M36.9363 4.76408C36.8572 4.15853 37.2839 3.60351 37.8895 3.52439L38.9859 3.38114C39.5914 3.30203 40.1465 3.72878 40.2256 4.33433C40.3047 4.93987 39.8779 5.4949 39.2724 5.57402L38.176 5.71727C37.5704 5.79638 37.0154 5.36962 36.9363 4.76408Z"/>
<path d="M47.8181 39.7425C47.4879 39.2288 47.6366 38.5447 48.1503 38.2145L49.0805 37.6165C49.5942 37.2863 50.2783 37.435 50.6085 37.9487C50.9388 38.4624 50.79 39.1466 50.2763 39.4768L49.3462 40.0748C48.8325 40.405 48.1483 40.2563 47.8181 39.7425Z"/>
<path d="M52.4706 36.7511C52.1404 36.2374 52.2891 35.5532 52.8028 35.223L53.733 34.6251C54.2467 34.2948 54.9308 34.4436 55.261 34.9573C55.5913 35.471 55.4425 36.1551 54.9288 36.4854L53.9987 37.0833C53.485 37.4135 52.8008 37.2648 52.4706 36.7511Z"/>
<path d="M38.5161 45.7267C38.1858 45.213 38.3346 44.5289 38.8483 44.1986L39.7784 43.6007C40.2921 43.2705 40.9763 43.4192 41.3065 43.9329C41.6367 44.4466 41.488 45.1308 40.9743 45.461L40.0442 46.0589C39.5304 46.3891 38.8463 46.2404 38.5161 45.7267Z"/>
<path d="M43.1661 42.7344C42.8358 42.2207 42.9846 41.5366 43.4983 41.2063L44.4293 40.6078C44.943 40.2776 45.6272 40.4263 45.9574 40.94C46.2876 41.4537 46.1389 42.1379 45.6252 42.4681L44.6941 43.0666C44.1804 43.3969 43.4963 43.2481 43.1661 42.7344Z"/>
<path d="M61.7043 30.8815C61.2385 30.3114 61.4028 29.4586 62.0472 29.1024L63.0293 28.5596C63.5558 28.2686 64.2178 28.4357 64.543 28.9417C64.8842 29.4724 64.7306 30.1793 64.1998 30.5205L63.2558 31.1273C62.7513 31.4516 62.0838 31.3459 61.7043 30.8815Z"/>
<path d="M57.1206 33.7588C56.7903 33.2451 56.9391 32.5609 57.4528 32.2307L58.3829 31.6328C58.8966 31.3025 59.5808 31.4513 59.911 31.965C60.2412 32.4787 60.0925 33.1628 59.5788 33.4931L58.6487 34.091C58.1349 34.4212 57.4508 34.2725 57.1206 33.7588Z"/>
</mask>
<path d="M57.2692 8.39176C56.4026 8.3318 55.5431 8.72874 55.1588 9.50773C54.7744 10.2867 54.9823 11.2103 55.5572 11.8616L55.6982 12.0214C56.1298 12.5103 56.2958 13.175 56.2519 13.8257C56.208 14.4767 55.9562 15.1037 55.4642 15.5322L55.3082 15.6681C54.6526 16.2391 54.3347 17.1256 54.6139 17.9488C54.8932 18.7721 55.6849 19.2823 56.5526 19.3366L56.759 19.3495C57.4103 19.3903 57.9915 19.7348 58.4225 20.2247C58.8533 20.7144 59.1259 21.3429 59.0809 21.9935L59.0662 22.2062C59.0062 23.0728 59.4032 23.9323 60.1822 24.3167C60.9612 24.701 61.8848 24.4931 62.536 23.9183L62.6959 23.7772C63.1848 23.3456 63.8495 23.1797 64.5002 23.2236C65.1511 23.2675 65.7782 23.5192 66.2067 24.0112L66.3425 24.1672C66.9135 24.8228 67.8001 25.1408 68.6235 24.8615C69.4467 24.5822 69.9568 23.7905 70.0111 22.9229L70.024 22.7164C70.0648 22.0651 70.4093 21.4839 70.8992 21.0529C71.3889 20.6222 72.0173 20.3495 72.6679 20.3945L72.8807 20.4092C73.7473 20.4692 74.6067 20.0723 74.9911 19.2933C75.3755 18.5143 75.1676 17.5907 74.5927 16.9394L74.4516 16.7795C74.02 16.2906 73.8541 15.626 73.898 14.9753C73.942 14.3243 74.1937 13.6973 74.6857 13.2687L74.8417 13.1329C75.4973 12.5619 75.8152 11.6753 75.5359 10.852C75.2567 10.0288 74.4649 9.51866 73.5973 9.46437L73.3909 9.45145C72.7396 9.4107 72.1583 9.06618 71.7274 8.57626C71.2966 8.08659 71.0239 7.45813 71.069 6.80751L71.0837 6.59477C71.1436 5.72819 70.7467 4.8687 69.9677 4.48434C69.1887 4.09997 68.2651 4.30789 67.6139 4.88271L67.454 5.0238C66.9651 5.45539 66.3004 5.62135 65.6496 5.57743C64.9987 5.5335 64.3717 5.28179 63.9432 4.7898L63.8074 4.6338C63.2364 3.97822 62.3499 3.66023 61.5266 3.93946C60.7032 4.21871 60.1931 5.01046 60.1388 5.87814L60.1259 6.08466C60.0851 6.73587 59.7406 7.31715 59.2507 7.74811C58.761 8.17885 58.1326 8.4515 57.482 8.40649L57.2692 8.39176ZM67.0321 10.434C69.2227 11.5149 70.1223 14.167 69.0414 16.3576C67.9605 18.5482 65.3085 19.4479 63.1178 18.367C60.9272 17.2861 60.0276 14.634 61.1085 12.4434C62.1894 10.2527 64.8414 9.35314 67.0321 10.434Z" fill="#FFB703"/>
<path d="M31.2009 10.0187C30.2064 9.54329 29.0343 9.87049 28.3346 10.7223C27.674 11.5265 26.5825 11.8322 25.5618 11.6292C24.5456 11.4272 23.68 10.7323 23.3795 9.74087C23.0612 8.69092 22.1084 7.94439 21.0129 8.00449C20.8373 8.01412 20.662 8.02596 20.4869 8.03999C19.4007 8.12705 18.5602 8.98628 18.3832 10.0615C18.2159 11.0779 17.447 11.8774 16.4711 12.2068C16.4547 12.2123 16.4383 12.2179 16.422 12.2234C15.4469 12.5557 14.3503 12.389 13.599 11.6841C12.8044 10.9386 11.6147 10.7679 10.6998 11.3597C10.5522 11.4551 10.4057 11.5525 10.2604 11.6517C9.3544 12.2705 9.05241 13.4427 9.43859 14.4696C9.80327 15.4394 9.53891 16.5175 8.85542 17.2961C8.16882 18.0783 7.1165 18.4998 6.10294 18.2635C5.02944 18.0132 3.90011 18.4667 3.40007 19.4491C3.36241 19.5231 3.32515 19.5974 3.2883 19.6721C3.25147 19.7467 3.21516 19.8215 3.17937 19.8964C2.70399 20.8909 3.0312 22.063 3.88296 22.7627C4.68717 23.4233 4.99294 24.5148 4.78994 25.5356C4.58785 26.5517 3.89302 27.4173 2.90155 27.7179C1.85159 28.0362 1.10507 28.9889 1.16517 30.0844C1.1748 30.26 1.18664 30.4353 1.20067 30.6104C1.28772 31.6966 2.14696 32.5371 3.22221 32.7142C4.23857 32.8815 5.03805 33.6503 5.36749 34.6263C5.37303 34.6427 5.3786 34.6591 5.38419 34.6755C5.71649 35.6505 5.54973 36.7471 4.84491 37.4983C4.0993 38.293 3.92871 39.4828 4.52049 40.3978C4.61589 40.5453 4.71321 40.6917 4.81243 40.8369C5.43126 41.7429 6.60339 42.0449 7.63032 41.6587C8.60005 41.2941 9.67821 41.5584 10.4568 42.2419C11.2389 42.9285 11.6605 43.9809 11.4242 44.9944C11.1739 46.0679 11.6274 47.1972 12.6097 47.6973C12.6837 47.7349 12.7581 47.7722 12.8327 47.8091C12.9074 47.8459 12.9822 47.8822 13.0571 47.918C14.0516 48.3934 15.2238 48.0662 15.9234 47.2144C16.584 46.4102 17.6755 46.1044 18.6963 46.3074C19.7124 46.5095 20.578 47.2043 20.8786 48.1958C21.1969 49.2458 22.1497 49.9923 23.2452 49.9322C23.4208 49.9226 23.5961 49.9107 23.7712 49.8967C24.8574 49.8096 25.6978 48.9504 25.8749 47.8752C26.0422 46.8588 26.811 46.0593 27.787 45.7299C27.8034 45.7243 27.8198 45.7187 27.8362 45.7132C28.8112 45.3809 29.9078 45.5476 30.659 46.2524C31.4537 46.9981 32.6434 47.1686 33.5585 46.5769C33.706 46.4814 33.8524 46.3841 33.9977 46.2849C34.9037 45.6661 35.2057 44.4939 34.8195 43.467C34.4548 42.4972 34.7191 41.4191 35.4026 40.6406C36.0892 39.8584 37.1415 39.4369 38.1551 39.6732C39.2286 39.9235 40.3579 39.47 40.858 38.4876C40.8956 38.4136 40.9329 38.3393 40.9697 38.2646C41.0066 38.1899 41.0429 38.1152 41.0787 38.0403C41.5541 37.0458 41.2269 35.8736 40.3751 35.1739C39.5709 34.5133 39.2651 33.4218 39.4681 32.4011C39.6702 31.385 40.365 30.5193 41.3565 30.2188C42.4065 29.9005 43.153 28.9477 43.0929 27.8522C43.0833 27.6766 43.0714 27.5012 43.0574 27.3261C42.9703 26.2399 42.1111 25.3995 41.0359 25.2225C40.0195 25.0552 39.22 24.2863 38.8905 23.3104C38.885 23.294 38.8794 23.2776 38.8739 23.2612C38.5415 22.2862 38.7083 21.1896 39.4131 20.4384C40.1587 19.6437 40.3293 18.4539 39.7376 17.5389C39.6422 17.3914 39.5449 17.2449 39.4456 17.0997C38.8268 16.1937 37.6547 15.8917 36.6278 16.2779C35.658 16.6426 34.5798 16.3782 33.8012 15.6947C33.0191 15.0081 32.5976 13.9558 32.8339 12.9423C33.0842 11.8688 32.6306 10.7394 31.6483 10.2394C31.5743 10.2017 31.5 10.1645 31.4253 10.1276C31.3506 10.0908 31.2758 10.0545 31.2009 10.0187ZM33.0368 34.3504C30.0644 40.3746 22.7712 42.8485 16.747 39.8761C10.7228 36.9037 8.24881 29.6105 11.2212 23.5863C14.1937 17.5621 21.4869 15.0881 27.5111 18.0606C33.5353 21.033 36.0092 28.3262 33.0368 34.3504Z" fill="#FFB703"/>
<path d="M53.3826 2.60874C53.3034 2.00319 53.7302 1.44816 54.3357 1.36905L55.4333 1.22565C56.0388 1.14654 56.5939 1.5733 56.673 2.17884C56.7521 2.78439 56.3253 3.33941 55.7198 3.41853L54.6223 3.56192C54.0167 3.64104 53.4617 3.21428 53.3826 2.60874Z" fill="#FFB703"/>
<path d="M47.9001 3.33139C47.821 2.72584 48.2478 2.17082 48.8533 2.0917L49.9498 1.94845C50.5553 1.86934 51.1103 2.29609 51.1895 2.90164C51.2686 3.50718 50.8418 4.06221 50.2363 4.14133L49.1398 4.28458C48.5343 4.36369 47.9793 3.93694 47.9001 3.33139Z" fill="#FFB703"/>
<path d="M42.4188 4.04821C42.3397 3.44266 42.7665 2.88764 43.372 2.80852L44.4684 2.66527C45.074 2.58616 45.629 3.01291 45.7081 3.61846C45.7873 4.224 45.3605 4.77903 44.755 4.85815L43.6585 5.0014C43.053 5.08051 42.4979 4.65375 42.4188 4.04821Z" fill="#FFB703"/>
<path d="M31.455 5.4809C31.3758 4.87536 31.8026 4.32033 32.4081 4.24121L33.5046 4.09796C34.1101 4.01885 34.6651 4.4456 34.7443 5.05115C34.8234 5.65669 34.3966 6.21172 33.7911 6.29084L32.6946 6.43409C32.0891 6.5132 31.5341 6.08645 31.455 5.4809Z" fill="#FFB703"/>
<path d="M25.973 6.19762C25.8939 5.59207 26.3206 5.03704 26.9262 4.95793L28.0226 4.81468C28.6282 4.73556 29.1832 5.16232 29.2623 5.76787C29.3414 6.37341 28.9147 6.92844 28.3091 7.00755L27.2127 7.15081C26.6071 7.22992 26.0521 6.80316 25.973 6.19762Z" fill="#FFB703"/>
<path d="M36.9363 4.76408C36.8572 4.15853 37.2839 3.60351 37.8895 3.52439L38.9859 3.38114C39.5914 3.30203 40.1465 3.72878 40.2256 4.33433C40.3047 4.93987 39.8779 5.4949 39.2724 5.57402L38.176 5.71727C37.5704 5.79638 37.0154 5.36962 36.9363 4.76408Z" fill="#FFB703"/>
<path d="M47.8181 39.7425C47.4879 39.2288 47.6366 38.5447 48.1503 38.2145L49.0805 37.6165C49.5942 37.2863 50.2783 37.435 50.6085 37.9487C50.9388 38.4624 50.79 39.1466 50.2763 39.4768L49.3462 40.0748C48.8325 40.405 48.1483 40.2563 47.8181 39.7425Z" fill="#FFB703"/>
<path d="M52.4706 36.7511C52.1404 36.2374 52.2891 35.5532 52.8028 35.223L53.733 34.6251C54.2467 34.2948 54.9308 34.4436 55.261 34.9573C55.5913 35.471 55.4425 36.1551 54.9288 36.4854L53.9987 37.0833C53.485 37.4135 52.8008 37.2648 52.4706 36.7511Z" fill="#FFB703"/>
<path d="M38.5161 45.7267C38.1858 45.213 38.3346 44.5289 38.8483 44.1986L39.7784 43.6007C40.2921 43.2705 40.9763 43.4192 41.3065 43.9329C41.6367 44.4466 41.488 45.1308 40.9743 45.461L40.0442 46.0589C39.5304 46.3891 38.8463 46.2404 38.5161 45.7267Z" fill="#FFB703"/>
<path d="M43.1661 42.7344C42.8358 42.2207 42.9846 41.5366 43.4983 41.2063L44.4293 40.6078C44.943 40.2776 45.6272 40.4263 45.9574 40.94C46.2876 41.4537 46.1389 42.1379 45.6252 42.4681L44.6941 43.0666C44.1804 43.3969 43.4963 43.2481 43.1661 42.7344Z" fill="#FFB703"/>
<path d="M61.7043 30.8815C61.2385 30.3114 61.4028 29.4586 62.0472 29.1024L63.0293 28.5596C63.5558 28.2686 64.2178 28.4357 64.543 28.9417C64.8842 29.4724 64.7306 30.1793 64.1998 30.5205L63.2558 31.1273C62.7513 31.4516 62.0838 31.3459 61.7043 30.8815Z" fill="#FFB703"/>
<path d="M57.1206 33.7588C56.7903 33.2451 56.9391 32.5609 57.4528 32.2307L58.3829 31.6328C58.8966 31.3025 59.5808 31.4513 59.911 31.965C60.2412 32.4787 60.0925 33.1628 59.5788 33.4931L58.6487 34.091C58.1349 34.4212 57.4508 34.2725 57.1206 33.7588Z" fill="#FFB703"/>
<path d="M57.2692 8.39176C56.4026 8.3318 55.5431 8.72874 55.1588 9.50773C54.7744 10.2867 54.9823 11.2103 55.5572 11.8616L55.6982 12.0214C56.1298 12.5103 56.2958 13.175 56.2519 13.8257C56.208 14.4767 55.9562 15.1037 55.4642 15.5322L55.3082 15.6681C54.6526 16.2391 54.3347 17.1256 54.6139 17.9488C54.8932 18.7721 55.6849 19.2823 56.5526 19.3366L56.759 19.3495C57.4103 19.3903 57.9915 19.7348 58.4225 20.2247C58.8533 20.7144 59.1259 21.3429 59.0809 21.9935L59.0662 22.2062C59.0062 23.0728 59.4032 23.9323 60.1822 24.3167C60.9612 24.701 61.8848 24.4931 62.536 23.9183L62.6959 23.7772C63.1848 23.3456 63.8495 23.1797 64.5002 23.2236C65.1511 23.2675 65.7782 23.5192 66.2067 24.0112L66.3425 24.1672C66.9135 24.8228 67.8001 25.1408 68.6235 24.8615C69.4467 24.5822 69.9568 23.7905 70.0111 22.9229L70.024 22.7164C70.0648 22.0651 70.4093 21.4839 70.8992 21.0529C71.3889 20.6222 72.0173 20.3495 72.6679 20.3945L72.8807 20.4092C73.7473 20.4692 74.6067 20.0723 74.9911 19.2933C75.3755 18.5143 75.1676 17.5907 74.5927 16.9394L74.4516 16.7795C74.02 16.2906 73.8541 15.626 73.898 14.9753C73.942 14.3243 74.1937 13.6973 74.6857 13.2687L74.8417 13.1329C75.4973 12.5619 75.8152 11.6753 75.5359 10.852C75.2567 10.0288 74.4649 9.51866 73.5973 9.46437L73.3909 9.45145C72.7396 9.4107 72.1583 9.06618 71.7274 8.57626C71.2966 8.08659 71.0239 7.45813 71.069 6.80751L71.0837 6.59477C71.1436 5.72819 70.7467 4.8687 69.9677 4.48434C69.1887 4.09997 68.2651 4.30789 67.6139 4.88271L67.454 5.0238C66.9651 5.45539 66.3004 5.62135 65.6496 5.57743C64.9987 5.5335 64.3717 5.28179 63.9432 4.7898L63.8074 4.6338C63.2364 3.97822 62.3499 3.66023 61.5266 3.93946C60.7032 4.21871 60.1931 5.01046 60.1388 5.87814L60.1259 6.08466C60.0851 6.73587 59.7406 7.31715 59.2507 7.74811C58.761 8.17885 58.1326 8.4515 57.482 8.40649L57.2692 8.39176ZM67.0321 10.434C69.2227 11.5149 70.1223 14.167 69.0414 16.3576C67.9605 18.5482 65.3085 19.4479 63.1178 18.367C60.9272 17.2861 60.0276 14.634 61.1085 12.4434C62.1894 10.2527 64.8414 9.35314 67.0321 10.434Z" stroke="#FFC700" mask="url(#path-1-outside-1)"/>
<path d="M31.2009 10.0187C30.2064 9.54329 29.0343 9.87049 28.3346 10.7223C27.674 11.5265 26.5825 11.8322 25.5618 11.6292C24.5456 11.4272 23.68 10.7323 23.3795 9.74087C23.0612 8.69092 22.1084 7.94439 21.0129 8.00449C20.8373 8.01412 20.662 8.02596 20.4869 8.03999C19.4007 8.12705 18.5602 8.98628 18.3832 10.0615C18.2159 11.0779 17.447 11.8774 16.4711 12.2068C16.4547 12.2123 16.4383 12.2179 16.422 12.2234C15.4469 12.5557 14.3503 12.389 13.599 11.6841C12.8044 10.9386 11.6147 10.7679 10.6998 11.3597C10.5522 11.4551 10.4057 11.5525 10.2604 11.6517C9.3544 12.2705 9.05241 13.4427 9.43859 14.4696C9.80327 15.4394 9.53891 16.5175 8.85542 17.2961C8.16882 18.0783 7.1165 18.4998 6.10294 18.2635C5.02944 18.0132 3.90011 18.4667 3.40007 19.4491C3.36241 19.5231 3.32515 19.5974 3.2883 19.6721C3.25147 19.7467 3.21516 19.8215 3.17937 19.8964C2.70399 20.8909 3.0312 22.063 3.88296 22.7627C4.68717 23.4233 4.99294 24.5148 4.78994 25.5356C4.58785 26.5517 3.89302 27.4173 2.90155 27.7179C1.85159 28.0362 1.10507 28.9889 1.16517 30.0844C1.1748 30.26 1.18664 30.4353 1.20067 30.6104C1.28772 31.6966 2.14696 32.5371 3.22221 32.7142C4.23857 32.8815 5.03805 33.6503 5.36749 34.6263C5.37303 34.6427 5.3786 34.6591 5.38419 34.6755C5.71649 35.6505 5.54973 36.7471 4.84491 37.4983C4.0993 38.293 3.92871 39.4828 4.52049 40.3978C4.61589 40.5453 4.71321 40.6917 4.81243 40.8369C5.43126 41.7429 6.60339 42.0449 7.63032 41.6587C8.60005 41.2941 9.67821 41.5584 10.4568 42.2419C11.2389 42.9285 11.6605 43.9809 11.4242 44.9944C11.1739 46.0679 11.6274 47.1972 12.6097 47.6973C12.6837 47.7349 12.7581 47.7722 12.8327 47.8091C12.9074 47.8459 12.9822 47.8822 13.0571 47.918C14.0516 48.3934 15.2238 48.0662 15.9234 47.2144C16.584 46.4102 17.6755 46.1044 18.6963 46.3074C19.7124 46.5095 20.578 47.2043 20.8786 48.1958C21.1969 49.2458 22.1497 49.9923 23.2452 49.9322C23.4208 49.9226 23.5961 49.9107 23.7712 49.8967C24.8574 49.8096 25.6978 48.9504 25.8749 47.8752C26.0422 46.8588 26.811 46.0593 27.787 45.7299C27.8034 45.7243 27.8198 45.7187 27.8362 45.7132C28.8112 45.3809 29.9078 45.5476 30.659 46.2524C31.4537 46.9981 32.6434 47.1686 33.5585 46.5769C33.706 46.4814 33.8524 46.3841 33.9977 46.2849C34.9037 45.6661 35.2057 44.4939 34.8195 43.467C34.4548 42.4972 34.7191 41.4191 35.4026 40.6406C36.0892 39.8584 37.1415 39.4369 38.1551 39.6732C39.2286 39.9235 40.3579 39.47 40.858 38.4876C40.8956 38.4136 40.9329 38.3393 40.9697 38.2646C41.0066 38.1899 41.0429 38.1152 41.0787 38.0403C41.5541 37.0458 41.2269 35.8736 40.3751 35.1739C39.5709 34.5133 39.2651 33.4218 39.4681 32.4011C39.6702 31.385 40.365 30.5193 41.3565 30.2188C42.4065 29.9005 43.153 28.9477 43.0929 27.8522C43.0833 27.6766 43.0714 27.5012 43.0574 27.3261C42.9703 26.2399 42.1111 25.3995 41.0359 25.2225C40.0195 25.0552 39.22 24.2863 38.8905 23.3104C38.885 23.294 38.8794 23.2776 38.8739 23.2612C38.5415 22.2862 38.7083 21.1896 39.4131 20.4384C40.1587 19.6437 40.3293 18.4539 39.7376 17.5389C39.6422 17.3914 39.5449 17.2449 39.4456 17.0997C38.8268 16.1937 37.6547 15.8917 36.6278 16.2779C35.658 16.6426 34.5798 16.3782 33.8012 15.6947C33.0191 15.0081 32.5976 13.9558 32.8339 12.9423C33.0842 11.8688 32.6306 10.7394 31.6483 10.2394C31.5743 10.2017 31.5 10.1645 31.4253 10.1276C31.3506 10.0908 31.2758 10.0545 31.2009 10.0187ZM33.0368 34.3504C30.0644 40.3746 22.7712 42.8485 16.747 39.8761C10.7228 36.9037 8.24881 29.6105 11.2212 23.5863C14.1937 17.5621 21.4869 15.0881 27.5111 18.0606C33.5353 21.033 36.0092 28.3262 33.0368 34.3504Z" stroke="#FFC700" mask="url(#path-1-outside-1)"/>
<path d="M53.3826 2.60874C53.3034 2.00319 53.7302 1.44816 54.3357 1.36905L55.4333 1.22565C56.0388 1.14654 56.5939 1.5733 56.673 2.17884C56.7521 2.78439 56.3253 3.33941 55.7198 3.41853L54.6223 3.56192C54.0167 3.64104 53.4617 3.21428 53.3826 2.60874Z" stroke="#FFC700" mask="url(#path-1-outside-1)"/>
<path d="M47.9001 3.33139C47.821 2.72584 48.2478 2.17082 48.8533 2.0917L49.9498 1.94845C50.5553 1.86934 51.1103 2.29609 51.1895 2.90164C51.2686 3.50718 50.8418 4.06221 50.2363 4.14133L49.1398 4.28458C48.5343 4.36369 47.9793 3.93694 47.9001 3.33139Z" stroke="#FFC700" mask="url(#path-1-outside-1)"/>
<path d="M42.4188 4.04821C42.3397 3.44266 42.7665 2.88764 43.372 2.80852L44.4684 2.66527C45.074 2.58616 45.629 3.01291 45.7081 3.61846C45.7873 4.224 45.3605 4.77903 44.755 4.85815L43.6585 5.0014C43.053 5.08051 42.4979 4.65375 42.4188 4.04821Z" stroke="#FFC700" mask="url(#path-1-outside-1)"/>
<path d="M31.455 5.4809C31.3758 4.87536 31.8026 4.32033 32.4081 4.24121L33.5046 4.09796C34.1101 4.01885 34.6651 4.4456 34.7443 5.05115C34.8234 5.65669 34.3966 6.21172 33.7911 6.29084L32.6946 6.43409C32.0891 6.5132 31.5341 6.08645 31.455 5.4809Z" stroke="#FFC700" mask="url(#path-1-outside-1)"/>
<path d="M25.973 6.19762C25.8939 5.59207 26.3206 5.03704 26.9262 4.95793L28.0226 4.81468C28.6282 4.73556 29.1832 5.16232 29.2623 5.76787C29.3414 6.37341 28.9147 6.92844 28.3091 7.00755L27.2127 7.15081C26.6071 7.22992 26.0521 6.80316 25.973 6.19762Z" stroke="#FFC700" mask="url(#path-1-outside-1)"/>
<path d="M36.9363 4.76408C36.8572 4.15853 37.2839 3.60351 37.8895 3.52439L38.9859 3.38114C39.5914 3.30203 40.1465 3.72878 40.2256 4.33433C40.3047 4.93987 39.8779 5.4949 39.2724 5.57402L38.176 5.71727C37.5704 5.79638 37.0154 5.36962 36.9363 4.76408Z" stroke="#FFC700" mask="url(#path-1-outside-1)"/>
<path d="M47.8181 39.7425C47.4879 39.2288 47.6366 38.5447 48.1503 38.2145L49.0805 37.6165C49.5942 37.2863 50.2783 37.435 50.6085 37.9487C50.9388 38.4624 50.79 39.1466 50.2763 39.4768L49.3462 40.0748C48.8325 40.405 48.1483 40.2563 47.8181 39.7425Z" stroke="#FFC700" mask="url(#path-1-outside-1)"/>
<path d="M52.4706 36.7511C52.1404 36.2374 52.2891 35.5532 52.8028 35.223L53.733 34.6251C54.2467 34.2948 54.9308 34.4436 55.261 34.9573C55.5913 35.471 55.4425 36.1551 54.9288 36.4854L53.9987 37.0833C53.485 37.4135 52.8008 37.2648 52.4706 36.7511Z" stroke="#FFC700" mask="url(#path-1-outside-1)"/>
<path d="M38.5161 45.7267C38.1858 45.213 38.3346 44.5289 38.8483 44.1986L39.7784 43.6007C40.2921 43.2705 40.9763 43.4192 41.3065 43.9329C41.6367 44.4466 41.488 45.1308 40.9743 45.461L40.0442 46.0589C39.5304 46.3891 38.8463 46.2404 38.5161 45.7267Z" stroke="#FFC700" mask="url(#path-1-outside-1)"/>
<path d="M43.1661 42.7344C42.8358 42.2207 42.9846 41.5366 43.4983 41.2063L44.4293 40.6078C44.943 40.2776 45.6272 40.4263 45.9574 40.94C46.2876 41.4537 46.1389 42.1379 45.6252 42.4681L44.6941 43.0666C44.1804 43.3969 43.4963 43.2481 43.1661 42.7344Z" stroke="#FFC700" mask="url(#path-1-outside-1)"/>
<path d="M61.7043 30.8815C61.2385 30.3114 61.4028 29.4586 62.0472 29.1024L63.0293 28.5596C63.5558 28.2686 64.2178 28.4357 64.543 28.9417C64.8842 29.4724 64.7306 30.1793 64.1998 30.5205L63.2558 31.1273C62.7513 31.4516 62.0838 31.3459 61.7043 30.8815Z" stroke="#FFC700" mask="url(#path-1-outside-1)"/>
<path d="M57.1206 33.7588C56.7903 33.2451 56.9391 32.5609 57.4528 32.2307L58.3829 31.6328C58.8966 31.3025 59.5808 31.4513 59.911 31.965C60.2412 32.4787 60.0925 33.1628 59.5788 33.4931L58.6487 34.091C58.1349 34.4212 57.4508 34.2725 57.1206 33.7588Z" stroke="#FFC700" mask="url(#path-1-outside-1)"/>
</svg>
