<svg width="50" height="50" viewBox="0 0 50 50" fill="none" xmlns="http://www.w3.org/2000/svg">
<path d="M30.3711 19.6279C31.288 19.6279 32.0312 18.8846 32.0312 17.9677C32.0312 17.0509 31.288 16.3076 30.3711 16.3076C29.4542 16.3076 28.7109 17.0509 28.7109 17.9677C28.7109 18.8846 29.4542 19.6279 30.3711 19.6279Z" fill="#FFB703"/>
<path d="M39.7461 33.6904C40.663 33.6904 41.4062 32.9471 41.4062 32.0302C41.4062 31.1133 40.663 30.3701 39.7461 30.3701C38.8292 30.3701 38.0859 31.1133 38.0859 32.0302C38.0859 32.9471 38.8292 33.6904 39.7461 33.6904Z" fill="#FFB703"/>
<path d="M48.5352 -0.000976562H21.0775C20.2686 -0.000976562 19.6127 0.654882 19.6127 1.46386V49.9989H48.5352C49.3441 49.9989 50 49.3431 50 48.5341V1.46386C50 0.654882 49.3441 -0.000976562 48.5352 -0.000976562ZM31.8359 22.3165V41.4052C31.8359 42.2142 31.1801 42.87 30.3711 42.87C29.5621 42.87 28.9062 42.2142 28.9062 41.4052V22.3165C27.0918 21.7037 25.7812 19.9865 25.7812 17.9677C25.7812 15.949 27.0918 14.2318 28.9062 13.619V8.59276C28.9062 7.78377 29.5621 7.12792 30.3711 7.12792C31.1801 7.12792 31.8359 7.78377 31.8359 8.59276V13.619C33.6504 14.2318 34.9609 15.949 34.9609 17.9677C34.9609 19.9865 33.6504 21.7037 31.8359 22.3165ZM41.2109 36.3789V41.4052C41.2109 42.2142 40.5551 42.87 39.7461 42.87C38.9371 42.87 38.2812 42.2142 38.2812 41.4052V36.3789C36.4668 35.7661 35.1562 34.049 35.1562 32.0302C35.1562 30.0115 36.4668 28.2943 38.2812 27.6815V8.59276C38.2812 7.78377 38.9371 7.12792 39.7461 7.12792C40.5551 7.12792 41.2109 7.78377 41.2109 8.59276V27.6815C43.0254 28.2943 44.3359 30.0115 44.3359 32.0302C44.3359 34.049 43.0254 35.7661 41.2109 36.3789Z" fill="#FFB703"/>
<path d="M11.8363 18.4379V20.9298C11.6735 20.9937 11.5121 21.0607 11.3521 21.1309L9.58945 19.3683C9.09697 18.8758 8.32578 18.7982 7.74512 19.1827C6.72021 19.861 5.7584 20.6471 4.88604 21.5194C4.0127 22.3928 3.22646 23.3548 2.54932 24.3786C2.16523 24.9593 2.24297 25.7301 2.73525 26.2225L4.49775 27.985C4.42754 28.1453 4.36045 28.3067 4.29658 28.4696H1.80469C1.1084 28.4696 0.508301 28.9598 0.369336 29.642C0.124316 30.845 0 32.0812 0 33.3161C0 34.5511 0.124316 35.7872 0.369336 36.9903C0.508301 37.6725 1.1084 38.1627 1.80469 38.1627H4.29658C4.36045 38.3256 4.42754 38.4872 4.49766 38.6473L2.73555 40.4095C2.24326 40.9018 2.16543 41.6727 2.54951 42.2533C3.22676 43.2773 4.01299 44.2393 4.88652 45.1128C5.75967 45.9859 6.72158 46.772 7.74561 47.4494C8.32637 47.8336 9.09727 47.756 9.58965 47.2636L11.3519 45.5014C11.512 45.5717 11.6735 45.6387 11.8364 45.7025V48.1941C11.8364 48.8905 12.3267 49.4905 13.009 49.6295C14.2131 49.8747 15.4492 49.999 16.683 49.999V36.924C14.6936 36.924 13.0751 35.3055 13.0751 33.3161C13.0751 31.3267 14.6937 29.7082 16.683 29.7082V16.6368C15.4471 16.6368 14.212 16.7572 13.0088 17.0024C12.3265 17.1415 11.8363 17.7416 11.8363 18.4379Z" fill="#FFB703"/>
</svg>
