<svg width="50" height="50" viewBox="0 0 50 50" fill="none" xmlns="http://www.w3.org/2000/svg">
<path d="M49.8429 22.2236C49.764 21.5208 48.9443 20.9921 48.2355 20.9921C45.9447 20.9921 43.9116 19.6476 43.059 17.5666C42.1887 15.4356 42.7502 12.9509 44.457 11.3851C44.9945 10.8936 45.06 10.0707 44.6094 9.49937C43.4365 8.01039 42.1041 6.66521 40.6488 5.4995C40.0795 5.04282 39.2429 5.10639 38.7488 5.65324C37.2587 7.30353 34.5819 7.91676 32.5134 7.05378C30.3617 6.14842 29.0035 3.96728 29.1369 1.62613C29.1808 0.890295 28.6428 0.250896 27.9096 0.165484C26.0419 -0.0507479 24.1579 -0.0570186 22.2849 0.150781C21.5609 0.230787 21.0233 0.855049 21.0473 1.58159C21.1284 3.89982 19.7549 6.04246 17.6239 6.91539C15.5803 7.75026 12.9221 7.14157 11.435 5.50577C10.9435 4.96692 10.1216 4.90076 9.54839 5.34771C8.05031 6.52336 6.68781 7.86941 5.50414 9.34627C5.04291 9.92037 5.11103 10.7524 5.65313 11.2457C7.3936 12.8218 7.95473 15.3279 7.05109 17.4837C6.18831 19.539 4.05428 20.863 1.61148 20.863C0.818757 20.8375 0.254599 21.3701 0.167024 22.091C-0.0526707 23.9685 -0.0550493 25.8826 0.156429 27.7755C0.235355 28.4813 1.07932 29.0055 1.79592 29.0055C3.97341 28.9501 6.06268 30.2972 6.94037 32.4308C7.81375 34.5618 7.25154 37.0454 5.54198 38.6133C5.00723 39.1048 4.9389 39.9258 5.3904 40.4965C6.55137 41.9762 7.88511 43.3222 9.34469 44.4979C9.91772 44.9593 10.7511 44.8946 11.2478 44.3471C12.7437 42.693 15.42 42.0808 17.4801 42.9455C19.6381 43.8485 20.9957 46.0294 20.8631 48.3712C20.8196 49.1071 21.3589 49.7484 22.0896 49.8319C23.0454 49.9437 24.0061 49.999 24.9698 49.999C25.8845 49.999 26.7994 49.9491 27.7143 49.8472C28.4391 49.7672 28.9758 49.1423 28.9514 48.4156C28.8677 46.0984 30.2443 43.9555 32.3727 43.0844C34.4299 42.2441 37.0762 42.859 38.5641 44.4925C39.0582 45.0302 39.8752 45.0955 40.4508 44.6503C41.9463 43.4777 43.3062 42.1323 44.495 40.6515C44.9567 40.0785 44.8912 39.2454 44.346 38.7513C42.606 37.1762 42.0418 34.669 42.9455 32.5154C43.7948 30.4877 45.8495 29.1263 48.0594 29.1263L48.3687 29.1346C49.0861 29.1927 49.7454 28.6403 49.8321 27.9083C50.0529 26.029 50.0553 24.1171 49.8429 22.2236ZM24.9999 39.4119C17.0396 39.4119 10.587 32.9593 10.587 24.9993C10.587 17.0394 17.0399 10.5868 24.9999 10.5868C32.96 10.5868 39.4128 17.0394 39.4128 24.9993C39.4128 27.7012 38.6679 30.2283 37.3742 32.3893L31.0631 26.0781C31.52 25.0008 31.7614 23.833 31.7611 22.6277C31.7611 20.2675 30.8419 18.0488 29.1728 16.3801C27.5041 14.7114 25.2853 13.7924 22.9256 13.7924C22.138 13.7924 21.3542 13.8971 20.5958 14.1036C20.2637 14.1942 19.9921 14.468 19.9037 14.8007C19.8133 15.1411 19.9151 15.4899 20.1811 15.756C20.1811 15.756 23.2968 18.8957 24.3393 19.938C24.4485 20.0472 24.4483 20.3077 24.4329 20.4016L24.4232 20.4701C24.3181 21.6162 24.1155 22.9918 23.9484 23.5205C23.9259 23.5428 23.9047 23.5616 23.8818 23.5845C23.8577 23.6085 23.8357 23.6317 23.8126 23.6554C23.2769 23.8274 21.8801 24.0323 20.7159 24.1366L20.7161 24.1303L20.6637 24.1435C20.6544 24.1446 20.6371 24.1459 20.6142 24.1459C20.4884 24.1459 20.3033 24.1106 20.135 23.9426C19.05 22.8575 16.0564 19.8854 16.0564 19.8854C15.7879 19.6177 15.5124 19.5615 15.3288 19.5615C14.9009 19.5615 14.5177 19.8707 14.397 20.3142C13.573 23.3637 14.4465 26.644 16.6774 28.8751C18.3466 30.544 20.5656 31.4629 22.9258 31.4629C24.1311 31.4629 25.299 31.2218 26.376 30.7649L32.7556 37.1444C30.5158 38.5776 27.8562 39.4119 24.9999 39.4119Z" fill="#FFC700"/>
</svg>
