<svg width="50" height="50" viewBox="0 0 50 50" fill="none" xmlns="http://www.w3.org/2000/svg">
<path d="M25 -0.000976562C11.1929 -0.000976562 0 11.1919 0 24.999C0 38.8062 11.1929 49.999 25 49.999C38.8071 49.999 50 38.8062 50 24.999C50 11.1919 38.8071 -0.000976562 25 -0.000976562ZM17.4843 32.1572L13.7472 38.63C12.1613 37.3237 10.7785 35.7183 9.69229 33.8369C8.60605 31.9556 7.90723 29.9553 7.56885 27.9287H15.0993C16.0641 27.974 16.8795 28.491 17.3976 29.3883C17.86 30.1892 17.8912 31.2678 17.4843 32.1572ZM17.3977 20.6098C16.9353 21.4106 16.0167 21.977 15.0431 22.0693H7.56894C7.90732 20.0429 8.60615 18.0426 9.69238 16.1611C10.7786 14.2797 12.1614 12.6743 13.7473 11.3681L17.5125 17.8896C17.9556 18.7479 17.9156 19.7125 17.3977 20.6098ZM25 42.6748C22.8275 42.6748 20.7458 42.2799 18.8216 41.5597L22.5869 35.0381C23.1085 34.2253 23.964 33.7775 25 33.7775C25.9248 33.7775 26.8745 34.2898 27.4413 35.0869L31.1784 41.5597C29.2542 42.2799 27.1725 42.6748 25 42.6748ZM20.6055 24.999C20.6055 22.5759 22.5769 20.6045 25 20.6045C27.4231 20.6045 29.3945 22.5759 29.3945 24.999C29.3945 27.4222 27.4231 29.3936 25 29.3936C22.5769 29.3936 20.6055 27.4222 20.6055 24.999ZM27.4131 14.96C26.8915 15.7728 26.036 16.2205 25 16.2205C24.0752 16.2205 23.1255 15.7082 22.5587 14.9111L18.8216 8.43838C20.7458 7.71816 22.8275 7.32324 25 7.32324C27.1725 7.32324 29.2542 7.71816 31.1784 8.43838L27.4131 14.96ZM40.3077 33.8369C39.2215 35.7183 37.8387 37.3237 36.2528 38.63L32.4875 32.1084C32.0443 31.2503 32.0843 30.2855 32.6023 29.3883C33.0647 28.5874 33.9833 28.0211 34.9569 27.9287H42.4311C42.0928 29.9553 41.3939 31.9556 40.3077 33.8369ZM34.9007 22.0693C33.9359 22.024 33.1205 21.507 32.6024 20.6098C32.14 19.8089 32.1089 18.7303 32.5157 17.8408L36.2528 11.3681C37.8387 12.6743 39.2215 14.2798 40.3077 16.1611C41.3939 18.0425 42.0928 20.0428 42.4312 22.0693H34.9007Z" fill="#FFC700"/>
<path d="M25 23.5342C24.1923 23.5342 23.5352 24.1913 23.5352 24.999C23.5352 25.8067 24.1923 26.4639 25 26.4639C25.8077 26.4639 26.4648 25.8067 26.4648 24.999C26.4648 24.1913 25.8077 23.5342 25 23.5342Z" fill="#FFC700"/>
</svg>
